<svg id="Camada_1" data-name="Camada 1" xmlns="http://www.w3.org/2000/svg" xmlns:xlink="http://www.w3.org/1999/xlink" viewBox="0 0 257.92 356.32"><defs><style>.cls-1{fill:#fff;}.cls-2{fill:url(#Gradiente_sem_nome_9);}.cls-3{fill:url(#Gradiente_sem_nome_9-2);}.cls-4{fill:url(#Gradiente_sem_nome_9-3);}.cls-5{fill:url(#Gradiente_sem_nome_9-4);}.cls-6{fill:url(#Gradiente_sem_nome_9-5);}.cls-7{fill:url(#Gradiente_sem_nome_9-6);}.cls-8{fill:url(#Gradiente_sem_nome_9-7);}.cls-9{fill:url(#Gradiente_sem_nome_9-8);}.cls-10{fill:url(#Gradiente_sem_nome_9-9);}.cls-11{fill:url(#Gradiente_sem_nome_9-10);}.cls-12{fill:url(#Gradiente_sem_nome_9-11);}.cls-13{fill:url(#Gradiente_sem_nome_9-12);}.cls-14{fill:url(#Gradiente_sem_nome_9-13);}.cls-15{fill:url(#Gradiente_sem_nome_9-14);}.cls-16{fill:url(#Gradiente_sem_nome_9-15);}.cls-17{fill:url(#Gradiente_sem_nome_9-16);}.cls-18{fill:url(#Gradiente_sem_nome_9-17);}.cls-19{fill:url(#Gradiente_sem_nome_9-18);}.cls-20{fill:url(#Gradiente_sem_nome_9-19);}.cls-21{fill:url(#Gradiente_sem_nome_9-20);}</style><linearGradient id="Gradiente_sem_nome_9" x1="58.62" y1="223.81" x2="132.44" y2="223.81" gradientUnits="userSpaceOnUse"><stop offset="0" stop-color="#cd6a00"/><stop offset="0.78" stop-color="#cd8002"/><stop offset="1" stop-color="#cd8702"/></linearGradient><linearGradient id="Gradiente_sem_nome_9-2" x1="164.81" y1="159.9" x2="204.56" y2="159.9" xlink:href="#Gradiente_sem_nome_9"/><linearGradient id="Gradiente_sem_nome_9-3" x1="53.36" y1="142.43" x2="64.99" y2="142.43" xlink:href="#Gradiente_sem_nome_9"/><linearGradient id="Gradiente_sem_nome_9-4" x1="54.02" y1="130.19" x2="66.46" y2="130.19" xlink:href="#Gradiente_sem_nome_9"/><linearGradient id="Gradiente_sem_nome_9-5" x1="57.32" y1="118.08" x2="69.62" y2="118.08" xlink:href="#Gradiente_sem_nome_9"/><linearGradient id="Gradiente_sem_nome_9-6" x1="61.54" y1="107.37" x2="75.02" y2="107.37" xlink:href="#Gradiente_sem_nome_9"/><linearGradient id="Gradiente_sem_nome_9-7" x1="69.21" y1="96.64" x2="81.6" y2="96.64" xlink:href="#Gradiente_sem_nome_9"/><linearGradient id="Gradiente_sem_nome_9-8" x1="76.06" y1="89.68" x2="91.2" y2="89.68" xlink:href="#Gradiente_sem_nome_9"/><linearGradient id="Gradiente_sem_nome_9-9" x1="85.66" y1="81.29" x2="100.31" y2="81.29" xlink:href="#Gradiente_sem_nome_9"/><linearGradient id="Gradiente_sem_nome_9-10" x1="96.96" y1="75.19" x2="109.05" y2="75.19" xlink:href="#Gradiente_sem_nome_9"/><linearGradient id="Gradiente_sem_nome_9-11" x1="109.98" y1="70.13" x2="122.64" y2="70.13" xlink:href="#Gradiente_sem_nome_9"/><linearGradient id="Gradiente_sem_nome_9-12" x1="121.6" y1="70.34" x2="133.95" y2="70.34" xlink:href="#Gradiente_sem_nome_9"/><linearGradient id="Gradiente_sem_nome_9-13" x1="134.81" y1="70.54" x2="144.3" y2="70.54" xlink:href="#Gradiente_sem_nome_9"/><linearGradient id="Gradiente_sem_nome_9-14" x1="145.94" y1="72.87" x2="157" y2="72.87" xlink:href="#Gradiente_sem_nome_9"/><linearGradient id="Gradiente_sem_nome_9-15" x1="184.37" y1="263" x2="197.13" y2="263" xlink:href="#Gradiente_sem_nome_9"/><linearGradient id="Gradiente_sem_nome_9-16" x1="173.19" y1="271.96" x2="188.39" y2="271.96" xlink:href="#Gradiente_sem_nome_9"/><linearGradient id="Gradiente_sem_nome_9-17" x1="165.12" y1="279.78" x2="177.46" y2="279.78" xlink:href="#Gradiente_sem_nome_9"/><linearGradient id="Gradiente_sem_nome_9-18" x1="154.83" y1="284.99" x2="166.82" y2="284.99" xlink:href="#Gradiente_sem_nome_9"/><linearGradient id="Gradiente_sem_nome_9-19" x1="142.46" y1="288.48" x2="155.47" y2="288.48" xlink:href="#Gradiente_sem_nome_9"/><linearGradient id="Gradiente_sem_nome_9-20" x1="101.08" y1="182.26" x2="166.82" y2="182.26" xlink:href="#Gradiente_sem_nome_9"/></defs><rect class="cls-1" x="-1025.03" y="-63.16" width="2273.07" height="468.36"/><path class="cls-2" d="M131.59,292.55a73.05,73.05,0,0,1-73-73V155.92a.86.86,0,1,1,1.71,0v63.66a71.35,71.35,0,0,0,71.26,71.27.85.85,0,0,1,0,1.7Z"/><path class="cls-3" d="M199.49,244.79a.92.92,0,0,1-.28,0,.85.85,0,0,1-.52-1.09,71,71,0,0,0,4.17-24.07V139.45a71.23,71.23,0,0,0-37.6-62.83.85.85,0,0,1,.8-1.5,72.92,72.92,0,0,1,38.5,64.33v80.13a72.78,72.78,0,0,1-4.27,24.64A.85.85,0,0,1,199.49,244.79Z"/><path class="cls-4" d="M63,146.29l-7.62-.13v.31a1.42,1.42,0,0,1-.29,1,.87.87,0,0,1-.71.29.9.9,0,0,1-.7-.31,1.51,1.51,0,0,1-.26-1l.08-4.88a4,4,0,0,1,1-2.8,3.05,3.05,0,0,1,2.33-1A3,3,0,0,1,58,138a3.2,3.2,0,0,1,1,.77,4,4,0,0,1,1.31-1.36A3.1,3.1,0,0,1,62,137a2.94,2.94,0,0,1,1.37.36,2.16,2.16,0,0,1,.76.62,3.78,3.78,0,0,1,.63,1.2A5.25,5.25,0,0,1,65,140.9l-.1,5.72a1.47,1.47,0,0,1-.28,1,.93.93,0,0,1-.72.29.9.9,0,0,1-.69-.32,1.45,1.45,0,0,1-.25-1Zm-4.76-2,0-2.14a3.05,3.05,0,0,0-.55-1.92,1.19,1.19,0,0,0-1-.53,1.13,1.13,0,0,0-.91.47,2.48,2.48,0,0,0-.41,1.53l0,2.54Zm4.79.08L63,141a3,3,0,0,0-.33-1.68.85.85,0,0,0-.75-.38,1.51,1.51,0,0,0-1.17.71,3.38,3.38,0,0,0-.61,2.09l0,2.58Z"/><path class="cls-5" d="M56.65,128.59l7.52,1.29.33-1.94a1.43,1.43,0,0,1,.44-.94.88.88,0,0,1,.74-.18.9.9,0,0,1,.64.41,1.46,1.46,0,0,1,.1,1l-1,5.8A1.51,1.51,0,0,1,65,135a.9.9,0,0,1-.75.18.92.92,0,0,1-.64-.42,1.49,1.49,0,0,1-.09-1l.33-1.94-7.52-1.29L56,132.45a1.43,1.43,0,0,1-.44.94.88.88,0,0,1-.74.18.9.9,0,0,1-.65-.42,1.43,1.43,0,0,1-.1-1l1-5.8a1.53,1.53,0,0,1,.43-.94.9.9,0,0,1,.75-.18.92.92,0,0,1,.65.42,1.49,1.49,0,0,1,.09,1Z"/><path class="cls-6" d="M59.34,113.81a1.37,1.37,0,0,1-.21-.49,1,1,0,0,1,0-.48.92.92,0,0,1,.51-.56,1.42,1.42,0,0,1,1,.08l1.56.54a1.53,1.53,0,0,1,.86.59,1,1,0,0,1-.36,1.28,1.52,1.52,0,0,1-.89.06,1.12,1.12,0,0,0-.67,0,2.63,2.63,0,0,0-1,.8,4,4,0,0,0-.71,1.23,3.46,3.46,0,0,0-.17,1.65,3.52,3.52,0,0,0,.73,1.63,3.66,3.66,0,0,0,1.73,1.2l1.2.42a3.07,3.07,0,0,0,2.55-.18,4,4,0,0,0,1.83-2.37,5,5,0,0,0,.33-1.83,2.88,2.88,0,0,0-.32-1.1,2.19,2.19,0,0,1-.22-.58.81.81,0,0,1,0-.4.91.91,0,0,1,.5-.54,1,1,0,0,1,.76,0,1.36,1.36,0,0,1,.67.66,4,4,0,0,1,.49,1.76,6.93,6.93,0,0,1-.42,2.72,6.78,6.78,0,0,1-1.7,2.71,5.2,5.2,0,0,1-5.13,1l-1.25-.44a5.77,5.77,0,0,1-2.44-1.61,5,5,0,0,1-1.26-2.52,5.33,5.33,0,0,1,.21-2.75,6.16,6.16,0,0,1,.71-1.43A4.81,4.81,0,0,1,59.34,113.81Z"/><path class="cls-7" d="M65.43,104.66l6.66,3.71,1-1.72a1.54,1.54,0,0,1,.72-.75.92.92,0,0,1,.77.09.87.87,0,0,1,.46.6,1.48,1.48,0,0,1-.25,1l-2.86,5.14a1.46,1.46,0,0,1-.72.74.92.92,0,0,1-.77-.08.89.89,0,0,1-.46-.6,1.48,1.48,0,0,1,.25-1l1-1.72-6.66-3.7-1,1.72a1.51,1.51,0,0,1-.72.74.92.92,0,0,1-.77-.08.9.9,0,0,1-.47-.61,1.48,1.48,0,0,1,.25-1L64.68,102a1.54,1.54,0,0,1,.72-.75.89.89,0,0,1,.76.08.91.91,0,0,1,.47.6,1.47,1.47,0,0,1-.25,1Z"/><path class="cls-8" d="M72.85,91.62a1.3,1.3,0,0,1,0-.54.89.89,0,0,1,.2-.44.9.9,0,0,1,.66-.36,1.45,1.45,0,0,1,1,.41l1.29,1a1.56,1.56,0,0,1,.62.84.9.9,0,0,1-.21.73.86.86,0,0,1-.56.36,1.54,1.54,0,0,1-.86-.24,1.21,1.21,0,0,0-.65-.18,2.73,2.73,0,0,0-1.21.43,3.88,3.88,0,0,0-1.08.93,3.4,3.4,0,0,0-.7,1.49,3.47,3.47,0,0,0,.15,1.78,3.63,3.63,0,0,0,1.24,1.71l1,.79a3,3,0,0,0,2.47.67,4,4,0,0,0,2.51-1.62,5,5,0,0,0,.91-1.62,2.62,2.62,0,0,0,.06-1.15,2.16,2.16,0,0,1,0-.62.79.79,0,0,1,.17-.36.94.94,0,0,1,.66-.35,1,1,0,0,1,.73.2,1.39,1.39,0,0,1,.41.85,3.92,3.92,0,0,1-.11,1.82,7.29,7.29,0,0,1-1.29,2.44,6.73,6.73,0,0,1-2.51,2,5.18,5.18,0,0,1-5.19-.69l-1-.83a5.93,5.93,0,0,1-1.78-2.32A5,5,0,0,1,69.28,96a5.32,5.32,0,0,1,1.1-2.52,6.6,6.6,0,0,1,1.14-1.11A4.58,4.58,0,0,1,72.85,91.62Z"/><path class="cls-9" d="M80.23,86.2l5.08,5.68,3.14-2.8-1.23-1.37a1.52,1.52,0,0,1-.47-.93,1,1,0,0,1,.33-.7.9.9,0,0,1,.72-.24,1.48,1.48,0,0,1,.87.57l2.53,2.83-6.88,6.15a1.52,1.52,0,0,1-.93.47,1,1,0,0,1-.7-.33.91.91,0,0,1-.24-.72,1.48,1.48,0,0,1,.57-.87l.84-.76L78.78,87.5l-.84.75a1.52,1.52,0,0,1-.93.47,1,1,0,0,1-.7-.33,1,1,0,0,1-.25-.73,1.48,1.48,0,0,1,.57-.87L79.79,84a1.52,1.52,0,0,1,.92-.47.88.88,0,0,1,.69.33.89.89,0,0,1,.25.73,1.57,1.57,0,0,1-.56.87Z"/><path class="cls-10" d="M91.89,83.07l1.52,2.42,4.21-2.65L97.06,82a1.54,1.54,0,0,1-.31-1,1,1,0,0,1,.44-.63A.94.94,0,0,1,98,80.2a1.55,1.55,0,0,1,.76.71l1.6,2.54-7.76,4.89a1.47,1.47,0,0,1-1,.3.9.9,0,0,1-.63-.44.87.87,0,0,1-.11-.75,1.48,1.48,0,0,1,.7-.76l.25-.16L87.7,80.07l-.26.17a1.43,1.43,0,0,1-1,.3.93.93,0,0,1-.63-.44.9.9,0,0,1-.12-.76,1.44,1.44,0,0,1,.7-.76l7.41-4.65,1.58,2.51a1.42,1.42,0,0,1,.3,1,.92.92,0,0,1-.43.63,1,1,0,0,1-.76.13,1.48,1.48,0,0,1-.76-.7l-.54-.87L89.35,79l1.5,2.38,1.45-.91a2.13,2.13,0,0,1-.4-.91,1,1,0,0,1,1.21-1,1.51,1.51,0,0,1,.76.71l1.2,1.9a1.79,1.79,0,0,1,.33.8,1,1,0,0,1-.46.81.93.93,0,0,1-1,.06,2.2,2.2,0,0,1-.65-.76Z"/><path class="cls-11" d="M103.26,71.74l2.92,7,1.21-.5a1.44,1.44,0,0,1,1-.14.89.89,0,0,1,.55.54.88.88,0,0,1,0,.76,1.44,1.44,0,0,1-.82.63l-4.21,1.76a1.48,1.48,0,0,1-1,.13.89.89,0,0,1-.55-.54.88.88,0,0,1,0-.76,1.44,1.44,0,0,1,.82-.63l1.2-.5-2.92-7-1.95.81.7,1.71a1.49,1.49,0,0,1,.14,1,.94.94,0,0,1-.54.55,1,1,0,0,1-.76,0,1.52,1.52,0,0,1-.64-.83L97,72.23l9.32-3.86,1.46,3.5a1.48,1.48,0,0,1,.13,1,.89.89,0,0,1-.54.55.88.88,0,0,1-.76,0,1.48,1.48,0,0,1-.63-.82l-.71-1.7Z"/><path class="cls-12" d="M118.32,74,113.7,75l-.2,1.26.47-.1a1.47,1.47,0,0,1,1,0,1,1,0,0,1,.31,1.37,1.53,1.53,0,0,1-.92.49l-2.56.58a1.44,1.44,0,0,1-1,0,.88.88,0,0,1-.45-.62.91.91,0,0,1,.14-.77,1.57,1.57,0,0,1,1-.48l1.28-8.11-1.24.28a1.53,1.53,0,0,1-1,0,.94.94,0,0,1-.45-.63.9.9,0,0,1,.14-.75,1.45,1.45,0,0,1,.91-.49l4.11-.93,5.92,8.47a1.72,1.72,0,0,1,.91-.05,1,1,0,0,1,.61.71.91.91,0,0,1-.13.74,1.45,1.45,0,0,1-.91.49L119,77a1.41,1.41,0,0,1-1,0,.94.94,0,0,1-.45-.62.9.9,0,0,1,.14-.75,1.5,1.5,0,0,1,.91-.49L119,75Zm-3.06-11.23-1.7,2.17a1,1,0,0,1-.47.37.61.61,0,0,1-.48-.08.56.56,0,0,1-.28-.39.82.82,0,0,1,.23-.68l1.71-2.17a.91.91,0,0,1,.47-.37.62.62,0,0,1,.48.07.59.59,0,0,1,.28.39A.88.88,0,0,1,115.26,62.72Zm1.84,9.51-2.39-3.41L114,72.93Z"/><path class="cls-13" d="M125.51,71.7l.14,2.45.7,0a1.43,1.43,0,0,1,1,.21,1,1,0,0,1,.08,1.41,1.42,1.42,0,0,1-1,.32l-2.95.17a1.47,1.47,0,0,1-1-.21.92.92,0,0,1-.34-.69.9.9,0,0,1,.26-.72,1.49,1.49,0,0,1,1-.32l.3,0-.43-7.61H123a1.47,1.47,0,0,1-1-.21,1,1,0,0,1-.08-1.41,1.47,1.47,0,0,1,1-.33l4.41-.24a4.65,4.65,0,0,1,3.25.83,3.23,3.23,0,0,1,1.27,2.42,2.8,2.8,0,0,1-.43,1.69,4.58,4.58,0,0,1-1.53,1.41,12.61,12.61,0,0,1,1.4,1.32c.31.34.73.88,1.27,1.62a2.13,2.13,0,0,1,1,.09,1,1,0,0,1,.47.81.9.9,0,0,1-.25.71,1.52,1.52,0,0,1-1,.33l-1.11.06q-2.57-3.53-4.17-4.17Zm-.12-2,1.52-.08a4.29,4.29,0,0,0,1.5-.35,2.84,2.84,0,0,0,1.16-.79,1.15,1.15,0,0,0,.26-.76,1.31,1.31,0,0,0-.64-1,2.75,2.75,0,0,0-1.75-.37l-2.23.13Z"/><path class="cls-14" d="M140.94,66.86l-.83,7.58,2,.21a1.48,1.48,0,0,1,1,.38,1,1,0,0,1-.15,1.4,1.49,1.49,0,0,1-1,.16L136,76a1.46,1.46,0,0,1-1-.38.87.87,0,0,1-.22-.73.89.89,0,0,1,.37-.67,1.49,1.49,0,0,1,1-.16l1.95.22.83-7.58-1.95-.22a1.44,1.44,0,0,1-1-.38.9.9,0,0,1-.22-.73.88.88,0,0,1,.37-.67,1.49,1.49,0,0,1,1-.16l5.85.65a1.51,1.51,0,0,1,1,.37,1,1,0,0,1-.16,1.4,1.47,1.47,0,0,1-1,.16Z"/><path class="cls-15" d="M156.72,74.37a6,6,0,0,1-2.77,3.7,5,5,0,0,1-7.13-1.73,6.46,6.46,0,0,1,2.53-8.87,5,5,0,0,1,3.77-.42,5.13,5.13,0,0,1,3.2,2.7A6,6,0,0,1,156.72,74.37Zm-1.87-.53a4.19,4.19,0,0,0-.23-3.13,3.13,3.13,0,0,0-4.69-1.33A4.55,4.55,0,0,0,148.32,75,3.15,3.15,0,0,0,153,76.37,4.18,4.18,0,0,0,154.85,73.84Z"/><path class="cls-16" d="M189.89,260.85l-2.29-1.79-1.25,1.61a1.49,1.49,0,0,1-.85.63,1,1,0,0,1-1.13-.88,1.51,1.51,0,0,1,.41-1l2.66-3.42a1.55,1.55,0,0,1,.85-.64.94.94,0,0,1,.76.2.92.92,0,0,1,.37.69,1.51,1.51,0,0,1-.41,1l-.19.24,6.13,4.78.19-.25a1.52,1.52,0,0,1,.85-.63,1,1,0,0,1,1.14.88,1.53,1.53,0,0,1-.41,1L191,270.62l-2.4-1.86a1.52,1.52,0,0,1-.63-.84.94.94,0,0,1,.21-.76.9.9,0,0,1,.67-.38,1.51,1.51,0,0,1,1,.41l.83.64,3.11-4-2.27-1.76-1.07,1.37a2.17,2.17,0,0,1,.7.73,1,1,0,0,1-.15,1,.93.93,0,0,1-.68.38,1.55,1.55,0,0,1-1-.41l-1.8-1.41a1.5,1.5,0,0,1-.64-.84.94.94,0,0,1,.21-.76.93.93,0,0,1,.89-.37,2.13,2.13,0,0,1,.88.5Z"/><path class="cls-17" d="M177.88,271.25l3.56-3.26-.47-1.22-.35.33a1.51,1.51,0,0,1-.94.48.88.88,0,0,1-.71-.32.9.9,0,0,1-.26-.73,1.49,1.49,0,0,1,.56-.9l2-1.81a1.53,1.53,0,0,1,.94-.48.9.9,0,0,1,.72.32.92.92,0,0,1,.25.75,1.53,1.53,0,0,1-.6.91l3,7.83,1-.88a1.48,1.48,0,0,1,.94-.48.89.89,0,0,1,.71.32.92.92,0,0,1,.26.74,1.47,1.47,0,0,1-.56.89l-3.17,2.9-9.51-4.51a2,2,0,0,1-.78.51,1,1,0,0,1-.9-.32.9.9,0,0,1-.26-.73,1.47,1.47,0,0,1,.56-.89l2-1.81a1.51,1.51,0,0,1,.94-.49.93.93,0,0,1,.71.33.92.92,0,0,1,.26.73,1.55,1.55,0,0,1-.57.89l-.35.33Zm2,.91,3.84,1.81-1.47-4Zm6.44,7.49.41-2.78a1,1,0,0,1,.23-.57.64.64,0,0,1,.91,0,.84.84,0,0,1,.13.72l-.41,2.78a1,1,0,0,1-.23.57.64.64,0,0,1-.47.17.59.59,0,0,1-.44-.2A.83.83,0,0,1,186.27,279.65Z"/><path class="cls-18" d="M172,285.34a1.22,1.22,0,0,1-.13.53,1,1,0,0,1-.32.37,1,1,0,0,1-.77.13,1.5,1.5,0,0,1-.78-.7l-.92-1.42a1.45,1.45,0,0,1-.32-1,1,1,0,0,1,1.08-.81,1.61,1.61,0,0,1,.76.5,1.2,1.2,0,0,0,.57.39,2.91,2.91,0,0,0,1.31,0,4.32,4.32,0,0,0,1.34-.56,3.46,3.46,0,0,0,1.16-1.22,3.51,3.51,0,0,0,.42-1.77,3.67,3.67,0,0,0-.65-2.05l-.7-1.08a3.08,3.08,0,0,0-2.18-1.44A4.07,4.07,0,0,0,169,276a5.15,5.15,0,0,0-1.4,1.27,2.7,2.7,0,0,0-.42,1.09,2.34,2.34,0,0,1-.19.6.8.8,0,0,1-.28.3,1,1,0,0,1-.75.12,1,1,0,0,1-.64-.42,1.37,1.37,0,0,1-.13-1,4,4,0,0,1,.69-1.72,7.12,7.12,0,0,1,2-1.94,6.94,6.94,0,0,1,3.06-1.13,5.07,5.07,0,0,1,2.64.48,5,5,0,0,1,2.16,1.86l.74,1.13a6.14,6.14,0,0,1,1,2.82,5.13,5.13,0,0,1-.55,2.82,5.42,5.42,0,0,1-1.88,2.09,6.33,6.33,0,0,1-1.46.71A5.26,5.26,0,0,1,172,285.34Z"/><path class="cls-19" d="M161.45,289l-3.08-7.14-1.84.8a1.5,1.5,0,0,1-1.05.15.91.91,0,0,1-.56-.54.93.93,0,0,1,0-.78,1.54,1.54,0,0,1,.83-.66l5.51-2.37a1.58,1.58,0,0,1,1.05-.16.92.92,0,0,1,.56.55.9.9,0,0,1,0,.77,1.58,1.58,0,0,1-.83.66l-1.84.8,3.08,7.13,1.84-.8a1.5,1.5,0,0,1,1-.15.93.93,0,0,1,.56.54,1,1,0,0,1,0,.79,1.48,1.48,0,0,1-.83.65l-5.51,2.37a1.52,1.52,0,0,1-1.05.16.9.9,0,0,1-.56-.54.93.93,0,0,1,0-.78,1.54,1.54,0,0,1,.83-.66Z"/><path class="cls-20" d="M150.86,292.48,149,284.93l-4.16,1,.45,1.83a1.51,1.51,0,0,1,0,1.05.9.9,0,0,1-.63.47.88.88,0,0,1-.76-.13,1.46,1.46,0,0,1-.51-.92l-.92-3.76,9.14-2.23a1.54,1.54,0,0,1,1.06,0,.93.93,0,0,1,.47.63,1,1,0,0,1-.13.76,1.49,1.49,0,0,1-.93.51l-1.12.27,1.84,7.55,1.12-.27a1.54,1.54,0,0,1,1.06,0,1,1,0,0,1,.47.63.92.92,0,0,1-.13.78,1.56,1.56,0,0,1-.92.51l-4.19,1a1.58,1.58,0,0,1-1,0,.93.93,0,0,1-.47-.63.9.9,0,0,1,.13-.77,1.46,1.46,0,0,1,.92-.51Z"/><path class="cls-21" d="M151,177.35c6.21-2.57,13.18-8.39,13.18-28.52v-5.22c0-20.8-9.45-32.28-34-32.28H111.57a10.5,10.5,0,0,0-10.49,10.5V241.34a11.84,11.84,0,0,0,11.84,11.84h19.2c24.71,0,34.7-12.64,34.7-36.63V205.79c0-20.63-9.47-25.92-15.8-28.44m-28.82-48H129c10.46,0,14.64,4.55,14.64,16.32v5.52c0,14.07-3.66,17.85-15.88,17.85H122.2ZM145.28,216c0,13.73-3.14,19.32-15.78,19.32h-7.3V186.77h5.64c13.95,0,17.44,5.94,17.44,19.76Z"/></svg>