<svg id="Camada_1" data-name="Camada 1" xmlns="http://www.w3.org/2000/svg" xmlns:xlink="http://www.w3.org/1999/xlink" viewBox="0 0 384.53 275.64"><defs><style>.cls-1{fill:#101426;}.cls-2{fill:#fff;}.cls-3{clip-path:url(#clip-path);}.cls-4{clip-path:url(#clip-path-2);}</style><clipPath id="clip-path"><path id="SVGID" class="cls-1" d="M214.81,112.23c-2.27,3.63-6.11,9.71-10.37,16.21a21.42,21.42,0,0,1,5.29,5.07c4.74-7.26,8.91-14.08,11.05-17.62a3.5,3.5,0,0,0-6-3.66"/></clipPath><clipPath id="clip-path-2"><path id="SVGID-2" data-name="SVGID" class="cls-1" d="M142,146.4c-3.08-2.2-5.38-6-2.48-10.26,3.42-5.07,7.76-3.62,9.82-2.18,3.69,2.6,7,9.12,5.28,12.21-.94,1.7-3,2.35-5.29,2.35A13.73,13.73,0,0,1,142,146.4m-5.5-11.57c-3.54,6.47.65,12.59,4.49,14.89,4.57,2.75,8.7,1.36,11.5.67h0c1.3-.32,2.3-.48,2.94,0l.28.26a9,9,0,0,1,1.6,2.48,17,17,0,0,0,1.28,2,24.38,24.38,0,0,0,4.59,4.58c.2.16.4.32.62.48,6.42,4.89,14.19,7.42,23.65,1a25.63,25.63,0,0,1-4.44-4.65c-3.91,2.25-9.77,2.63-15.46-1.13a23.52,23.52,0,0,1-5.11-4.67c-.54-.66-1.07-1.36-1.6-2.12s-1-1.56-1.53-2.42-.94-1.66-1.38-2.57c-.12-.23-.23-.47-.35-.71-2.85-6.78-8-13.65-13.43-13.65-2.58,0-5.21,1.58-7.65,5.51"/></clipPath></defs><rect class="cls-2" x="-1424.97" y="-104.66" width="2273.07" height="468.36"/><path class="cls-1" d="M306.65,135.19a73,73,0,0,1-73,73H170a.85.85,0,1,1,0-1.7h63.67A71.35,71.35,0,0,0,305,135.19a.85.85,0,0,1,1.7,0Z"/><path class="cls-1" d="M258.89,67.29a.74.74,0,0,1-.05.29.84.84,0,0,1-1.08.51,71.23,71.23,0,0,0-24.07-4.17H153.56a71.22,71.22,0,0,0-62.83,37.6.86.86,0,0,1-1.16.35.84.84,0,0,1-.34-1.15,72.92,72.92,0,0,1,64.33-38.5h80.13a72.78,72.78,0,0,1,24.64,4.27A.84.84,0,0,1,258.89,67.29Z"/><path class="cls-1" d="M160.39,203.83l-.12,7.63h.3a1.53,1.53,0,0,1,1,.29.91.91,0,0,1,.29.71,1,1,0,0,1-.31.71,1.53,1.53,0,0,1-1,.25l-4.89-.08a4,4,0,0,1-2.79-1,3,3,0,0,1-1-2.33,2.8,2.8,0,0,1,.26-1.19,3.27,3.27,0,0,1,.77-1,4,4,0,0,1-1.36-1.31,3.06,3.06,0,0,1-.43-1.67,2.83,2.83,0,0,1,.35-1.38,2.37,2.37,0,0,1,.62-.76,4,4,0,0,1,1.2-.63,5.31,5.31,0,0,1,1.76-.22l5.73.09a1.42,1.42,0,0,1,1,.29,1,1,0,0,1,0,1.4,1.47,1.47,0,0,1-1,.26Zm-2,4.76-2.13,0a3.1,3.1,0,0,0-1.93.55,1.15,1.15,0,0,0-.52,1,1.1,1.1,0,0,0,.47.9,2.41,2.41,0,0,0,1.53.41l2.54.05Zm.08-4.79-3.36-.05a2.87,2.87,0,0,0-1.68.32.92.92,0,0,0-.39.76,1.59,1.59,0,0,0,.72,1.17,3.31,3.31,0,0,0,2.09.6l2.58,0Z"/><path class="cls-1" d="M142.7,210.13l1.28-7.51-1.94-.34a1.5,1.5,0,0,1-.94-.43.93.93,0,0,1-.18-.75.9.9,0,0,1,.42-.64,1.49,1.49,0,0,1,1-.1l5.8,1a1.51,1.51,0,0,1,1,.43.94.94,0,0,1,.17.75.89.89,0,0,1-.41.64,1.51,1.51,0,0,1-1,.1L145.9,203l-1.28,7.51,1.94.33a1.51,1.51,0,0,1,.94.44.93.93,0,0,1,.17.75.88.88,0,0,1-.41.65,1.52,1.52,0,0,1-1,.09l-5.79-1a1.51,1.51,0,0,1-1-.43.93.93,0,0,1-.17-.75.89.89,0,0,1,.41-.64,1.46,1.46,0,0,1,1-.1Z"/><path class="cls-1" d="M127.92,207.44a1.45,1.45,0,0,1-.5.22.84.84,0,0,1-.47,0,.91.91,0,0,1-.57-.51,1.47,1.47,0,0,1,.08-1l.55-1.56a1.52,1.52,0,0,1,.59-.86,1,1,0,0,1,.76,0,.93.93,0,0,1,.52.42,1.51,1.51,0,0,1,.06.89,1.22,1.22,0,0,0,0,.67,2.7,2.7,0,0,0,.8,1,3.87,3.87,0,0,0,1.24.71,3.25,3.25,0,0,0,3.27-.56A3.62,3.62,0,0,0,135.5,205l.42-1.19a3.06,3.06,0,0,0-.19-2.56,4,4,0,0,0-2.36-1.83,5,5,0,0,0-1.83-.33,2.75,2.75,0,0,0-1.1.33,2.47,2.47,0,0,1-.58.21.93.93,0,0,1-.4,0,1,1,0,0,1-.55-.51,1,1,0,0,1,0-.75,1.36,1.36,0,0,1,.67-.68,4,4,0,0,1,1.75-.49,7,7,0,0,1,2.73.42,6.59,6.59,0,0,1,2.7,1.71,5.16,5.16,0,0,1,1.06,5.13l-.44,1.24a6.06,6.06,0,0,1-1.61,2.45,5,5,0,0,1-2.53,1.26,5.34,5.34,0,0,1-2.75-.21,6.81,6.81,0,0,1-1.43-.71A5,5,0,0,1,127.92,207.44Z"/><path class="cls-1" d="M118.77,201.36l3.7-6.67-1.72-.95A1.48,1.48,0,0,1,120,193a.89.89,0,0,1,.08-.76.91.91,0,0,1,.6-.47,1.54,1.54,0,0,1,1,.25l5.14,2.86a1.51,1.51,0,0,1,.75.73.89.89,0,0,1-.08.76.91.91,0,0,1-.6.47,1.53,1.53,0,0,1-1-.25l-1.72-1-3.71,6.66,1.72,1a1.54,1.54,0,0,1,.75.72.92.92,0,0,1-.09.77.91.91,0,0,1-.6.47,1.48,1.48,0,0,1-1-.25l-5.14-2.87a1.46,1.46,0,0,1-.75-.72.93.93,0,0,1,.08-.76,1,1,0,0,1,.61-.47,1.48,1.48,0,0,1,1,.25Z"/><path class="cls-1" d="M105.72,193.94a1.47,1.47,0,0,1-.54,0,1,1,0,0,1-.44-.19.92.92,0,0,1-.36-.67,1.47,1.47,0,0,1,.41-1l1-1.29a1.42,1.42,0,0,1,.84-.61.86.86,0,0,1,.73.2.88.88,0,0,1,.35.56,1.42,1.42,0,0,1-.23.86,1.15,1.15,0,0,0-.18.65,2.59,2.59,0,0,0,.42,1.21,4.08,4.08,0,0,0,.93,1.08,3.46,3.46,0,0,0,1.5.71,3.61,3.61,0,0,0,1.78-.16,3.57,3.57,0,0,0,1.71-1.24l.79-1a3.1,3.1,0,0,0,.67-2.48,4,4,0,0,0-1.63-2.5,4.82,4.82,0,0,0-1.62-.92,3,3,0,0,0-1.15-.06,1.78,1.78,0,0,1-.61,0,.75.75,0,0,1-.36-.17.9.9,0,0,1-.35-.66.89.89,0,0,1,.2-.72,1.34,1.34,0,0,1,.85-.42,3.76,3.76,0,0,1,1.81.12,7.28,7.28,0,0,1,4.43,3.79,5.15,5.15,0,0,1-.7,5.19l-.82,1a5.94,5.94,0,0,1-2.33,1.77,5,5,0,0,1-2.8.36,5.33,5.33,0,0,1-2.52-1.11,6,6,0,0,1-1.12-1.14A5.23,5.23,0,0,1,105.72,193.94Z"/><path class="cls-1" d="M100.3,186.55l5.69-5.08-2.8-3.13-1.38,1.22a1.46,1.46,0,0,1-.93.47.89.89,0,0,1-.69-.33A.89.89,0,0,1,100,179a1.48,1.48,0,0,1,.57-.87l2.82-2.53,6.15,6.89a1.46,1.46,0,0,1,.47.93,1,1,0,0,1-1,.93,1.41,1.41,0,0,1-.87-.56l-.75-.85L101.6,188l.75.85a1.47,1.47,0,0,1,.47.92.9.9,0,0,1-.33.7.91.91,0,0,1-.73.25,1.54,1.54,0,0,1-.87-.57L98.09,187a1.52,1.52,0,0,1-.47-.93.9.9,0,0,1,.32-.69.89.89,0,0,1,.73-.25,1.48,1.48,0,0,1,.87.57Z"/><path class="cls-1" d="M97.17,174.89l2.42-1.52L97,169.16l-.9.56a1.48,1.48,0,0,1-1,.31.89.89,0,0,1-.63-.44.91.91,0,0,1-.12-.75,1.5,1.5,0,0,1,.7-.77l2.55-1.6,4.88,7.77a1.48,1.48,0,0,1,.31,1,.89.89,0,0,1-.44.63.91.91,0,0,1-.75.12,1.5,1.5,0,0,1-.77-.7l-.16-.26-6.45,4.06.16.26a1.53,1.53,0,0,1,.31,1,1,1,0,0,1-1.2.76,1.52,1.52,0,0,1-.77-.71L88,173l2.51-1.58a1.54,1.54,0,0,1,1-.3.86.86,0,0,1,.62.44.88.88,0,0,1,.13.75,1.44,1.44,0,0,1-.7.76l-.86.55,2.42,3.84,2.38-1.5-.91-1.45a2.23,2.23,0,0,1-.9.41,1,1,0,0,1-.84-.46.87.87,0,0,1-.12-.76,1.44,1.44,0,0,1,.7-.76l1.9-1.19a1.6,1.6,0,0,1,.81-.33.92.92,0,0,1,.81.45.94.94,0,0,1,0,1,2.1,2.1,0,0,1-.76.65Z"/><path class="cls-1" d="M85.84,163.53l7-2.93-.5-1.21a1.48,1.48,0,0,1-.13-1,.93.93,0,0,1,.53-.55.94.94,0,0,1,.77,0,1.52,1.52,0,0,1,.63.82l1.75,4.22a1.47,1.47,0,0,1,.13,1,1,1,0,0,1-.53.55.91.91,0,0,1-.76,0,1.48,1.48,0,0,1-.64-.82l-.5-1.21-7,2.93.81,1.95,1.7-.71a1.49,1.49,0,0,1,1-.14.89.89,0,0,1,.55.54.88.88,0,0,1,0,.76,1.45,1.45,0,0,1-.82.64l-3.51,1.46-3.87-9.33L86,159a1.47,1.47,0,0,1,1-.13.94.94,0,0,1,.55.54,1,1,0,0,1,0,.76,1.51,1.51,0,0,1-.83.63l-1.7.71Z"/><path class="cls-1" d="M88.06,148.46l1,4.62,1.27.2-.11-.46a1.52,1.52,0,0,1,0-1,1,1,0,0,1,1.37-.32,1.48,1.48,0,0,1,.49.92l.59,2.56a1.53,1.53,0,0,1,0,1,1,1,0,0,1-.63.45.92.92,0,0,1-.76-.15,1.45,1.45,0,0,1-.48-.95L82.73,154l.28,1.24a1.46,1.46,0,0,1,0,1,.88.88,0,0,1-.62.45.92.92,0,0,1-.76-.13,1.53,1.53,0,0,1-.49-.92l-.92-4.11,8.47-5.91a1.8,1.8,0,0,1-.06-.92,1,1,0,0,1,.71-.61.93.93,0,0,1,.75.13,1.53,1.53,0,0,1,.49.92l.58,2.56a1.5,1.5,0,0,1,0,1,.88.88,0,0,1-.62.45.89.89,0,0,1-.75-.13,1.48,1.48,0,0,1-.49-.92l-.11-.46Zm-11.24,3.07,2.17,1.7a1,1,0,0,1,.38.47.67.67,0,0,1-.08.48.59.59,0,0,1-.39.28.82.82,0,0,1-.68-.24L76,152.52a1,1,0,0,1-.37-.48.62.62,0,0,1,.08-.48.58.58,0,0,1,.38-.27A.8.8,0,0,1,76.82,151.53Zm9.52-1.84-3.42,2.39,4.12.67Z"/><path class="cls-1" d="M85.8,141.28l2.45-.14,0-.7a1.52,1.52,0,0,1,.22-1,.92.92,0,0,1,.69-.34.88.88,0,0,1,.71.26,1.51,1.51,0,0,1,.33,1l.17,3a1.49,1.49,0,0,1-.22,1,.86.86,0,0,1-.69.34.88.88,0,0,1-.71-.26,1.51,1.51,0,0,1-.33-1l0-.31-7.61.44,0,.3a1.53,1.53,0,0,1-.21,1,1,1,0,0,1-1.42.08,1.52,1.52,0,0,1-.33-1l-.24-4.4a4.59,4.59,0,0,1,.84-3.25A3.22,3.22,0,0,1,81.83,135a2.78,2.78,0,0,1,1.68.44A4.51,4.51,0,0,1,84.93,137a11.63,11.63,0,0,1,1.31-1.4c.34-.31.89-.74,1.62-1.28a2,2,0,0,1,.1-1,1,1,0,0,1,.8-.48.9.9,0,0,1,.71.26,1.37,1.37,0,0,1,.33,1l.07,1.11c-2.35,1.71-3.74,3.11-4.18,4.17Zm-1.94.11-.09-1.52a4,4,0,0,0-.34-1.49,2.87,2.87,0,0,0-.79-1.16,1.19,1.19,0,0,0-.77-.27,1.36,1.36,0,0,0-1,.65,2.72,2.72,0,0,0-.37,1.74l.13,2.23Z"/><path class="cls-1" d="M81,125.84l7.58.83.22-2a1.49,1.49,0,0,1,.38-1,1,1,0,0,1,1.4.15,1.54,1.54,0,0,1,.16,1l-.64,5.85a1.54,1.54,0,0,1-.38,1,.92.92,0,0,1-.74.22.9.9,0,0,1-.66-.38,1.46,1.46,0,0,1-.16-1l.21-2-7.58-.83-.21,2a1.51,1.51,0,0,1-.38,1,1,1,0,0,1-.74.22.94.94,0,0,1-.67-.38,1.49,1.49,0,0,1-.16-1l.65-5.84a1.49,1.49,0,0,1,.38-1,.85.85,0,0,1,.73-.22.89.89,0,0,1,.67.37,1.49,1.49,0,0,1,.16,1Z"/><path class="cls-1" d="M88.48,110.06a6.05,6.05,0,0,1,3.7,2.77,5.11,5.11,0,0,1,.61,4.15,5.06,5.06,0,0,1-2.34,3,6.47,6.47,0,0,1-8.88-2.53,5.06,5.06,0,0,1,2.29-7A6.06,6.06,0,0,1,88.48,110.06Zm-.54,1.88a4.16,4.16,0,0,0-3.12.22,3.26,3.26,0,0,0-1.79,2,3.2,3.2,0,0,0,.46,2.66,4.54,4.54,0,0,0,5.64,1.61,3.22,3.22,0,0,0,1.79-2,3.25,3.25,0,0,0-.45-2.67A4.11,4.11,0,0,0,87.94,111.94Z"/><path class="cls-1" d="M275,76.89l-1.78,2.29,1.6,1.25a1.55,1.55,0,0,1,.64.85.94.94,0,0,1-.2.76.92.92,0,0,1-.68.37,1.53,1.53,0,0,1-1-.41l-3.42-2.66a1.49,1.49,0,0,1-.63-.85.91.91,0,0,1,.2-.75.89.89,0,0,1,.68-.37,1.47,1.47,0,0,1,1,.4l.25.19,4.77-6.13-.24-.19a1.5,1.5,0,0,1-.64-.84,1,1,0,0,1,.89-1.14,1.46,1.46,0,0,1,1,.41l7.38,5.75-1.87,2.39a1.52,1.52,0,0,1-.84.63.91.91,0,0,1-.75-.2.93.93,0,0,1-.38-.68,1.51,1.51,0,0,1,.4-1l.65-.82-4-3.12-1.77,2.27,1.38,1.07a2,2,0,0,1,.73-.69.93.93,0,0,1,1,.15.88.88,0,0,1,.37.67,1.48,1.48,0,0,1-.41,1l-1.4,1.8a1.51,1.51,0,0,1-.85.64.91.91,0,0,1-.75-.2,1,1,0,0,1-.38-.89,2.28,2.28,0,0,1,.51-.89Z"/><path class="cls-1" d="M285.36,88.9l-3.27-3.55-1.22.46.33.36a1.51,1.51,0,0,1,.49.93.94.94,0,0,1-.33.72.9.9,0,0,1-.73.25,1.47,1.47,0,0,1-.89-.56l-1.81-2a1.53,1.53,0,0,1-.49-.94,1,1,0,0,1,1.08-1,1.51,1.51,0,0,1,.9.6l7.84-3-.88-1a1.55,1.55,0,0,1-.49-.94,1,1,0,0,1,.33-.72.93.93,0,0,1,.73-.26,1.49,1.49,0,0,1,.9.57l2.9,3.16-4.52,9.52a1.7,1.7,0,0,1,.51.78,1,1,0,0,1-.32.9.94.94,0,0,1-.72.26,1.51,1.51,0,0,1-.9-.57l-1.8-2a1.5,1.5,0,0,1-.49-.94,1,1,0,0,1,1.05-1,1.49,1.49,0,0,1,.9.56l.33.36Zm.9-2,1.82-3.84-4,1.48Zm7.5-6.44-2.78-.4a1,1,0,0,1-.57-.23.69.69,0,0,1-.18-.47.63.63,0,0,1,.21-.44.84.84,0,0,1,.72-.14l2.79.42a1,1,0,0,1,.56.23.63.63,0,0,1,0,.9A.84.84,0,0,1,293.76,80.51Z"/><path class="cls-1" d="M299.44,94.74a1.43,1.43,0,0,1,.54.13,1,1,0,0,1,.5,1.09,1.53,1.53,0,0,1-.71.78l-1.41.92a1.55,1.55,0,0,1-1,.33,1,1,0,0,1-.64-.43.87.87,0,0,1-.16-.66,1.47,1.47,0,0,1,.5-.76,1.17,1.17,0,0,0,.38-.57,2.77,2.77,0,0,0,0-1.31,4.09,4.09,0,0,0-.56-1.34,3.47,3.47,0,0,0-1.22-1.16,3.56,3.56,0,0,0-1.77-.42,3.78,3.78,0,0,0-2.05.65l-1.08.7a3.16,3.16,0,0,0-1.44,2.18,4.11,4.11,0,0,0,.77,2.95,5,5,0,0,0,1.27,1.4,2.9,2.9,0,0,0,1.1.43,2.76,2.76,0,0,1,.6.18.89.89,0,0,1,.29.29.91.91,0,0,1,.13.74,1,1,0,0,1-.43.64,1.41,1.41,0,0,1-.95.14,4.14,4.14,0,0,1-1.73-.7,7.26,7.26,0,0,1-1.94-2,6.92,6.92,0,0,1-1.12-3.06,5.3,5.3,0,0,1,2.34-4.8l1.12-.73a5.92,5.92,0,0,1,2.82-1,5.06,5.06,0,0,1,2.83.55,5.41,5.41,0,0,1,2.09,1.88,6.33,6.33,0,0,1,.71,1.46A5.12,5.12,0,0,1,299.44,94.74Z"/><path class="cls-1" d="M303.05,105.33l-7.13,3.08.79,1.84a1.58,1.58,0,0,1,.16,1,1,1,0,0,1-1.32.57,1.5,1.5,0,0,1-.66-.83l-2.38-5.5a1.5,1.5,0,0,1-.15-1.05,1,1,0,0,1,.54-.57.92.92,0,0,1,.78,0,1.45,1.45,0,0,1,.65.83l.8,1.84,7.13-3.08-.79-1.84a1.5,1.5,0,0,1-.15-1,1,1,0,0,1,1.32-.57,1.47,1.47,0,0,1,.66.82l2.37,5.51a1.58,1.58,0,0,1,.16,1.05.91.91,0,0,1-.54.56.93.93,0,0,1-.78,0,1.5,1.5,0,0,1-.66-.83Z"/><path class="cls-1" d="M306.59,115.92,299,117.76l1,4.16,1.83-.44a1.49,1.49,0,0,1,1.06,0,.93.93,0,0,1,.47.63.94.94,0,0,1-.13.77,1.56,1.56,0,0,1-.93.51l-3.75.91-2.23-9.14a1.46,1.46,0,0,1,0-1.05.9.9,0,0,1,.63-.47.88.88,0,0,1,.76.13,1.51,1.51,0,0,1,.52.92l.27,1.12,7.55-1.84-.28-1.12a1.54,1.54,0,0,1,0-1.06,1,1,0,0,1,1.4-.34,1.46,1.46,0,0,1,.51.93l1,4.18a1.49,1.49,0,0,1,0,1.06.9.9,0,0,1-.62.46,1,1,0,0,1-.78-.12,1.62,1.62,0,0,1-.51-.93Z"/><path class="cls-1" d="M194.47,115.89c-2.23,3.69-6.66,10.93-11.65,18.53a23.63,23.63,0,0,0-5.09-5.38c4.42-6.73,8.42-13.07,10.76-16.81a3.51,3.51,0,0,1,6,3.66Z"/><path class="cls-1" d="M156.39,156.77c-5.94,3.18-16,2.1-23.37-10.52-.6-1-1.17-2.11-1.72-3.28-4.22-10-13.57-20.26-21.09-8.14-3.53,6.47.66,12.59,4.49,14.89,6.7,4,12.43-.83,14.44.67l.29.26c1.68,1.54,1.38,4.43,8.08,9.56,6.37,4.85,14.06,7.38,23.4,1.2a26.26,26.26,0,0,1-4.52-4.64Zm-28-10.6c-2.07,3.71-9.54,2.44-12.61.23s-5.39-6-2.5-10.26c3.43-5.07,7.77-3.62,9.82-2.18,3.69,2.6,7,9.12,5.29,12.21Z"/><path id="SVGID-3" data-name="SVGID" class="cls-1" d="M214.81,112.23c-2.27,3.63-6.11,9.71-10.37,16.21a21.42,21.42,0,0,1,5.29,5.07c4.74-7.26,8.91-14.08,11.05-17.62a3.5,3.5,0,0,0-6-3.66"/><g class="cls-3"><rect class="cls-1" x="204.44" y="110.58" width="17.23" height="22.93"/></g><path id="SVGID-4" data-name="SVGID" class="cls-1" d="M142,146.4c-3.08-2.2-5.38-6-2.48-10.26,3.42-5.07,7.76-3.62,9.82-2.18,3.69,2.6,7,9.12,5.28,12.21-.94,1.7-3,2.35-5.29,2.35A13.73,13.73,0,0,1,142,146.4m-5.5-11.57c-3.54,6.47.65,12.59,4.49,14.89,4.57,2.75,8.7,1.36,11.5.67h0c1.3-.32,2.3-.48,2.94,0l.28.26a9,9,0,0,1,1.6,2.48,17,17,0,0,0,1.28,2,24.38,24.38,0,0,0,4.59,4.58c.2.16.4.32.62.48,6.42,4.89,14.19,7.42,23.65,1a25.63,25.63,0,0,1-4.44-4.65c-3.91,2.25-9.77,2.63-15.46-1.13a23.52,23.52,0,0,1-5.11-4.67c-.54-.66-1.07-1.36-1.6-2.12s-1-1.56-1.53-2.42-.94-1.66-1.38-2.57c-.12-.23-.23-.47-.35-.71-2.85-6.78-8-13.65-13.43-13.65-2.58,0-5.21,1.58-7.65,5.51"/><g class="cls-4"><rect class="cls-1" x="132.99" y="129.32" width="54.49" height="38.31"/></g><path class="cls-1" d="M247.57,115.89c-4.15,6.87-15.92,26-24.66,36.9a22.21,22.21,0,0,1-5-5.07c8-10.67,19-28.13,23.65-35.49a3.51,3.51,0,0,1,6,3.66Z"/><path class="cls-1" d="M182.53,150.65a6.62,6.62,0,0,1,1.24,1.8,7.59,7.59,0,0,0,.36.68,16.15,16.15,0,0,0,1.09,1.75,22.88,22.88,0,0,0,4.54,4.66l.85.67c.46.35.94.7,1.41,1,6.25,4.27,13.71,6,22.68-.3a24.14,24.14,0,0,1-4.32-4.69,14,14,0,0,1-13.89.43,18.93,18.93,0,0,1-2.42-1.41,23.89,23.89,0,0,1-5-4.76c-.48-.57-.93-1.19-1.38-1.83l-.31-.47c-.42-.61-.82-1.27-1.22-1.95s-.94-1.66-1.38-2.57c-.12-.23-.23-.47-.35-.71a36.89,36.89,0,0,0-3.21-6.05,22.57,22.57,0,0,0-5-5.56c-4.07-3.1-8.76-3.19-12.89,3.47-2.68,4.89-.93,9.6,1.75,12.59a11.66,11.66,0,0,0,2.74,2.29,11,11,0,0,0,3.36,1.37c3.21.74,6.05-.18,8.14-.69,1.3-.32,2.31-.48,2.94,0Zm-1.09-4.48c-1.34,2.39-4.92,2.71-8.12,2.05a12.32,12.32,0,0,1-4.5-1.82,11.24,11.24,0,0,1-1.83-1.62,6.54,6.54,0,0,1-.66-8.64c2.85-4.21,6.33-3.92,8.6-2.87,0,0,.88.45,1.22.69a14.92,14.92,0,0,1,4,4.55C181.69,141.24,182.47,144.32,181.44,146.17Z"/><path class="cls-1" d="M274.41,111.42a3.5,3.5,0,0,0-5.24.81c-6.4,10.23-25.24,39.92-31,43.88-3.54,2.43-9.08,3.22-14.64.27a18.19,18.19,0,0,1-2.35-1.47,24.72,24.72,0,0,1-5-4.92c-.32-.42-.64-.86-1-1.32s-.46-.68-.68-1-.57-.91-.85-1.39c-.47-.8-.93-1.66-1.38-2.57-.12-.23-.23-.47-.34-.71a39.61,39.61,0,0,0-2.23-4.47,29.47,29.47,0,0,0-1.64-2.52,19.56,19.56,0,0,0-5.19-5.23,9,9,0,0,0-2.53-1.16c-3.16-.89-6.47.37-9.49,5.24a10.14,10.14,0,0,0-.44,9.21,12.17,12.17,0,0,0,1.52,2.57h0a12.56,12.56,0,0,0,3.4,3.1,11.64,11.64,0,0,0,2.32,1.07,10.92,10.92,0,0,0,3,.55,21.26,21.26,0,0,0,6.16-1c1.29-.32,2.3-.48,2.93,0l.28.25h0a4.77,4.77,0,0,1,.94,1.27c.2.36.41.76.65,1.21s.46.81.77,1.28a21.88,21.88,0,0,0,4.47,4.81c.39.32.81.65,1.25,1s.65.49,1,.72c6.9,4.88,15.29,6.78,25.59-1.92,8.22-6.95,25.22-34.57,30.38-43.12A3.49,3.49,0,0,0,274.41,111.42ZM209,146.17c-1.06,1.91-3.57,2.5-6.17,2.32a14.36,14.36,0,0,1-3-.54,11.26,11.26,0,0,1-3.43-1.55,10.93,10.93,0,0,1-2.49-2.45,7,7,0,0,1-1.26-3,6.66,6.66,0,0,1,1.26-4.82,7.51,7.51,0,0,1,4.36-3.38,6.14,6.14,0,0,1,3.23.12,7.72,7.72,0,0,1,2.23,1.08,13.94,13.94,0,0,1,3.35,3.58,15.74,15.74,0,0,1,1.49,2.72C209.52,142.48,209.83,144.71,209,146.17Z"/></svg>