<svg id="Camada_1" data-name="Camada 1" xmlns="http://www.w3.org/2000/svg" xmlns:xlink="http://www.w3.org/1999/xlink" viewBox="0 0 685.18 653.57"><defs><style>.cls-1{clip-path:url(#clip-path);}.cls-2{clip-path:url(#clip-path-2);}.cls-3{clip-path:url(#clip-path-3);}.cls-4{clip-path:url(#clip-path-4);}.cls-5{clip-path:url(#clip-path-5);}</style><clipPath id="clip-path"><path id="SVGID" d="M384.58,200.08c-4.22,6.76-11.37,18.08-19.32,30.2a39.7,39.7,0,0,1,9.86,9.44c8.84-13.53,16.6-26.22,20.59-32.82a6.53,6.53,0,0,0-11.13-6.82"/></clipPath><clipPath id="clip-path-2"><path id="SVGID-2" data-name="SVGID" d="M249,263.73c-5.74-4.11-10-11.16-4.64-19.1,6.38-9.45,14.47-6.75,18.3-4.07,6.87,4.84,13.05,17,9.84,22.75-1.75,3.15-5.62,4.37-9.85,4.37-5,0-10.54-1.72-13.65-3.95m-10.26-21.54c-6.6,12,1.22,23.43,8.36,27.72,8.52,5.12,16.21,2.53,21.42,1.25h0c2.41-.59,4.28-.89,5.46,0,.18.15.53.48.53.48,1.22,1.11,1.89,2.63,3,4.62a34.19,34.19,0,0,0,2.38,3.78,46,46,0,0,0,8.55,8.52c.37.3.75.6,1.15.9,12,9.1,26.44,13.82,44.05,1.91a47,47,0,0,1-8.26-8.66c-7.28,4.18-18.2,4.89-28.8-2.1a43.89,43.89,0,0,1-9.51-8.7c-1-1.23-2-2.54-3-4s-1.92-2.9-2.85-4.49-1.75-3.1-2.58-4.79c-.21-.44-.42-.89-.64-1.34-5.31-12.62-15-25.41-25-25.41-4.82,0-9.72,2.94-14.26,10.27"/></clipPath><clipPath id="clip-path-3"><path id="SVGID-3" data-name="SVGID" d="M465.4,340.39h3.41c6.83,0,8.09,3.68,8.09,9.72v2.69c0,8.49-2.35,10.91-8.73,10.91H465.4Zm-7.52-9.95a4.53,4.53,0,0,0-4.53,4.53v67.79a5.87,5.87,0,0,0,5.87,5.87h.31a5.87,5.87,0,0,0,5.87-5.87v-29.1h2.8c7,0,8.23,2.18,8.23,11.73,0,4.08-.12,11.9.21,17.71a5.87,5.87,0,0,0,11.73-.56c-.24-5.77-.18-13.35-.18-17.93,0-10.62-2.62-13.91-7.18-16.05,3-1.24,8-4.29,8-16.31v-3c0-14.08-7-18.84-18.93-18.84Z"/></clipPath><clipPath id="clip-path-4"><path id="SVGID-4" data-name="SVGID" d="M498,336.47v66.14a6,6,0,0,0,12.05,0V336.47a6,6,0,1,0-12.05,0"/></clipPath><clipPath id="clip-path-5"><path id="SVGID-5" data-name="SVGID" d="M531.27,389.34V350c0-6.62,2.33-9.73,6.68-9.73,4.88,0,6.79,3.43,6.79,9.64v39.24c0,6.88-2.1,9.73-6.77,9.73-4.35,0-6.7-3.06-6.7-9.55M519,351.1v36.81c0,14.6,5.72,21.86,18.43,21.86,13.24,0,19.61-7.08,19.61-22.07V351.19c0-15.05-7-21.9-18.85-21.9-11.65,0-19.19,6.83-19.19,21.81"/></clipPath></defs><path d="M346.69,206.9c-4.15,6.87-12.4,20.35-21.69,34.51a44.37,44.37,0,0,0-9.48-10c8.23-12.53,15.68-24.34,20.05-31.31a6.52,6.52,0,0,1,11.12,6.82"/><path d="M275.76,283.05c-11.05,5.92-29.87,3.91-43.52-19.59-1.12-1.9-2.18-3.93-3.21-6.13-7.86-18.68-25.27-37.72-39.27-15.14-6.59,12,1.21,23.43,8.35,27.72,12.48,7.51,23.16-1.55,26.91,1.25l.53.48c3.12,2.87,2.56,8.26,15,17.82,11.86,9,26.18,13.74,43.58,2.22a48.62,48.62,0,0,1-8.42-8.63m-52.24-19.74c-3.85,6.89-17.77,4.54-23.5.42s-10-11.15-4.65-19.1c6.39-9.45,14.47-6.75,18.3-4.07,6.87,4.84,13.05,17,9.85,22.75"/><path id="SVGID-6" data-name="SVGID" d="M384.58,200.08c-4.22,6.76-11.37,18.08-19.32,30.2a39.7,39.7,0,0,1,9.86,9.44c8.84-13.53,16.6-26.22,20.59-32.82a6.53,6.53,0,0,0-11.13-6.82"/><g class="cls-1"><rect x="365.26" y="197.01" width="32.1" height="42.71"/></g><path id="SVGID-7" data-name="SVGID" d="M249,263.73c-5.74-4.11-10-11.16-4.64-19.1,6.38-9.45,14.47-6.75,18.3-4.07,6.87,4.84,13.05,17,9.84,22.75-1.75,3.15-5.62,4.37-9.85,4.37-5,0-10.54-1.72-13.65-3.95m-10.26-21.54c-6.6,12,1.22,23.43,8.36,27.72,8.52,5.12,16.21,2.53,21.42,1.25h0c2.41-.59,4.28-.89,5.46,0,.18.15.53.48.53.48,1.22,1.11,1.89,2.63,3,4.62a34.19,34.19,0,0,0,2.38,3.78,46,46,0,0,0,8.55,8.52c.37.3.75.6,1.15.9,12,9.1,26.44,13.82,44.05,1.91a47,47,0,0,1-8.26-8.66c-7.28,4.18-18.2,4.89-28.8-2.1a43.89,43.89,0,0,1-9.51-8.7c-1-1.23-2-2.54-3-4s-1.92-2.9-2.85-4.49-1.75-3.1-2.58-4.79c-.21-.44-.42-.89-.64-1.34-5.31-12.62-15-25.41-25-25.41-4.82,0-9.72,2.94-14.26,10.27"/><g class="cls-2"><rect x="232.17" y="231.92" width="101.5" height="71.36"/></g><path d="M445.6,206.9c-7.73,12.79-29.66,48.46-45.94,68.73a41.3,41.3,0,0,1-9.25-9.43c14.87-19.88,35.47-52.4,44.06-66.12a6.53,6.53,0,0,1,11.13,6.82"/><path d="M324.45,271.64a11.9,11.9,0,0,1,2.31,3.36c.2.4.42.82.67,1.26a33.09,33.09,0,0,0,2,3.27,42.65,42.65,0,0,0,8.47,8.67c.5.42,1,.83,1.58,1.26.86.65,1.74,1.29,2.63,1.9,11.63,7.94,25.54,11.17,42.24-.57a44.64,44.64,0,0,1-8-8.74c-6.39,4.2-16.07,5.58-25.88.81a36.09,36.09,0,0,1-4.5-2.62,44.46,44.46,0,0,1-9.4-8.88c-.88-1.06-1.73-2.21-2.56-3.41-.2-.28-.4-.57-.59-.87-.77-1.14-1.52-2.36-2.26-3.63q-1.33-2.25-2.58-4.78c-.21-.44-.42-.89-.64-1.34a69.13,69.13,0,0,0-6-11.27,42.12,42.12,0,0,0-9.28-10.35c-7.59-5.77-16.32-5.93-24,6.47-5,9.11-1.73,17.87,3.26,23.44a21.86,21.86,0,0,0,5.1,4.28,20.93,20.93,0,0,0,6.25,2.55c6,1.37,11.27-.34,15.17-1.29,2.42-.59,4.3-.89,5.48,0C324.1,271.31,324.45,271.64,324.45,271.64Zm-2-8.34c-2.48,4.45-9.16,5.05-15.12,3.81a23,23,0,0,1-8.38-3.38,20.31,20.31,0,0,1-3.4-3c-3.73-4.14-5.48-9.83-1.24-16.09,5.32-7.85,11.8-7.3,16-5.35,0,0,1.64.84,2.28,1.29A27.57,27.57,0,0,1,320,249C322.9,254.11,324.35,259.85,322.42,263.3Z"/><path d="M495.6,198.58a6.51,6.51,0,0,0-9.76,1.5c-11.92,19-47,74.35-57.77,81.74-6.6,4.53-16.93,6-27.27.51a34.92,34.92,0,0,1-4.4-2.74,46.65,46.65,0,0,1-9.23-9.17c-.6-.79-1.2-1.61-1.8-2.47-.43-.62-.85-1.26-1.28-1.92-.53-.83-1-1.69-1.57-2.57q-1.32-2.25-2.57-4.79c-.22-.44-.42-.89-.64-1.34a72.33,72.33,0,0,0-4.15-8.31q-1.43-2.46-3.05-4.71a36.8,36.8,0,0,0-9.67-9.73,17.39,17.39,0,0,0-4.72-2.17c-5.87-1.65-12.05.69-17.68,9.77a18.92,18.92,0,0,0-.82,17.14,22.25,22.25,0,0,0,2.84,4.8v0a23,23,0,0,0,6.34,5.77,21,21,0,0,0,4.31,2,20.27,20.27,0,0,0,5.65,1c4.46.19,8.39-1,11.47-1.77,2.4-.59,4.28-.89,5.47,0l.52.46v0a8.71,8.71,0,0,1,1.74,2.37c.39.67.77,1.42,1.22,2.25s.86,1.51,1.43,2.38a40.73,40.73,0,0,0,8.33,9c.72.6,1.5,1.22,2.33,1.86.6.46,1.22.91,1.83,1.33,12.84,9.08,28.48,12.63,47.67-3.57,15.31-13,47-64.4,56.58-80.32A6.49,6.49,0,0,0,495.6,198.58ZM373.8,263.3c-2,3.56-6.65,4.65-11.49,4.31a26.54,26.54,0,0,1-5.64-1,21,21,0,0,1-6.38-2.89,19.89,19.89,0,0,1-4.63-4.57,12.81,12.81,0,0,1-2.35-5.56,12.42,12.42,0,0,1,2.35-9c2.56-3.8,5.4-5.63,8.12-6.29a11.59,11.59,0,0,1,6,.21,15.14,15.14,0,0,1,4.15,2,26,26,0,0,1,6.24,6.66,31,31,0,0,1,2.78,5.07C374.73,256.42,375.31,260.58,373.8,263.3Z"/><path d="M155.67,366.83c3.43-1.42,7.27-4.62,7.27-15.72v-2.88c0-11.46-5.21-17.79-18.74-17.79H133.93a5.78,5.78,0,0,0-5.78,5.78v65.89a6.52,6.52,0,0,0,6.53,6.52h10.58c13.62,0,19.13-7,19.13-20.19v-5.93c0-11.37-5.22-14.29-8.72-15.68m-15.88-26.44h3.74c5.76,0,8.07,2.51,8.07,9v3c0,7.76-2,9.85-8.76,9.85h-3.05Zm12.72,47.74c0,7.56-1.73,10.65-8.7,10.65h-4V372h3.11c7.69,0,9.61,3.28,9.61,10.9Z"/><path d="M172.16,336.47V402.6a6,6,0,0,0,12.07,0V336.47a6,6,0,0,0-12.07,0"/><path d="M219.64,385.25a3.06,3.06,0,0,0-3.06,3.05v1.33c0,5.82-1.14,9.26-5.51,9.26-4.56,0-5.59-4-5.59-9.07V348.48c0-5.36,1.34-8.2,5.46-8.2s5.4,3,5.4,8.16a4.9,4.9,0,0,0,4.9,4.9h3.69a3.5,3.5,0,0,0,3.5-3.5c0-10.83-2.81-20.55-17.47-20.55-12.28,0-17.76,8-17.76,20.07V388.8c0,11.93,3.07,21,17.56,21,16.53,0,18-12.53,18-21.47a3,3,0,0,0-3.05-3.05Z"/><path d="M235.85,336.47v66.14a6,6,0,0,0,12.05,0V336.47a6,6,0,1,0-12.05,0"/><path d="M283.32,385.25a3.06,3.06,0,0,0-3.05,3.05v1.33c0,5.82-1.16,9.26-5.51,9.26-4.58,0-5.59-4-5.59-9.07V348.48c0-5.36,1.32-8.2,5.44-8.2s5.41,3,5.41,8.16v1.4a3.5,3.5,0,0,0,3.51,3.5h5.07a3.49,3.49,0,0,0,3.5-3.5c0-10.83-2.79-20.55-17.46-20.55-12.29,0-17.75,8-17.75,20.07V388.8c0,11.93,3.06,21,17.54,21,16.54,0,18-12.53,18-21.47a3.06,3.06,0,0,0-3.06-3.05Z"/><path d="M311.59,397.85v-62a5.39,5.39,0,0,0-5.39-5.39h-1.29a5.39,5.39,0,0,0-5.39,5.39v66.81a6,6,0,0,0,6,6h19.8a5.39,5.39,0,1,0,0-10.78Z"/><path d="M348.12,397.54V372.91h11.64a5.55,5.55,0,0,0,0-11.1H348.12V341.63h12.6a5.54,5.54,0,0,0,5.54-5.55V336a5.54,5.54,0,0,0-5.54-5.55H339.39a3.33,3.33,0,0,0-3.33,3.33v69.4a5.46,5.46,0,0,0,5.47,5.46h20a5.55,5.55,0,1,0,0-11.09Z"/><path d="M371.05,336h0a5.6,5.6,0,0,0,5.6,5.59h6.94v61a6,6,0,0,0,12.07,0v-61h7a5.6,5.6,0,1,0,0-11.19h-26a5.6,5.6,0,0,0-5.6,5.6"/><path d="M429.62,316l-5.81,6.09a2.9,2.9,0,0,0,2.1,4.9h3.47a2.89,2.89,0,0,0,1.81-.63l7.63-6.09a2.9,2.9,0,0,0-1.81-5.17h-5.29a2.93,2.93,0,0,0-2.1.9M426,330.44h0a10,10,0,0,0-9.91,8.44L406,401.7a6,6,0,1,0,11.83,1.73l2.06-15.71h12l2.32,15.8a6,6,0,0,0,5.91,5.11h.38a6,6,0,0,0,5.9-7l-10.51-62.85a10,10,0,0,0-9.89-8.38m-4.61,46.18c1.55-11.54,3.9-28.28,4.24-34.73h.44c.89,8.85,2.6,21.45,4.39,34.73Z"/><path id="SVGID-8" data-name="SVGID" d="M465.4,340.39h3.41c6.83,0,8.09,3.68,8.09,9.72v2.69c0,8.49-2.35,10.91-8.73,10.91H465.4Zm-7.52-9.95a4.53,4.53,0,0,0-4.53,4.53v67.79a5.87,5.87,0,0,0,5.87,5.87h.31a5.87,5.87,0,0,0,5.87-5.87v-29.1h2.8c7,0,8.23,2.18,8.23,11.73,0,4.08-.12,11.9.21,17.71a5.87,5.87,0,0,0,11.73-.56c-.24-5.77-.18-13.35-.18-17.93,0-10.62-2.62-13.91-7.18-16.05,3-1.24,8-4.29,8-16.31v-3c0-14.08-7-18.84-18.93-18.84Z"/><g class="cls-3"><rect x="453.35" y="330.44" width="35.63" height="78.2"/></g><path id="SVGID-9" data-name="SVGID" d="M498,336.47v66.14a6,6,0,0,0,12.05,0V336.47a6,6,0,1,0-12.05,0"/><g class="cls-4"><rect x="497.95" y="330.44" width="12.05" height="78.2"/></g><path id="SVGID-10" data-name="SVGID" d="M531.27,389.34V350c0-6.62,2.33-9.73,6.68-9.73,4.88,0,6.79,3.43,6.79,9.64v39.24c0,6.88-2.1,9.73-6.77,9.73-4.35,0-6.7-3.06-6.7-9.55M519,351.1v36.81c0,14.6,5.72,21.86,18.43,21.86,13.24,0,19.61-7.08,19.61-22.07V351.19c0-15.05-7-21.9-18.85-21.9-11.65,0-19.19,6.83-19.19,21.81"/><g class="cls-5"><rect x="518.99" y="329.29" width="38.04" height="80.47"/></g><path d="M185.09,432.56h0a1.12,1.12,0,0,0-1.12-1.12H170.76a1.12,1.12,0,0,0-1.12,1.12v22.59a1.12,1.12,0,0,0,1.12,1.12H171a1.12,1.12,0,0,0,1.12-1.12V444.7h11a1.12,1.12,0,0,0,0-2.24h-11v-8.78H184a1.12,1.12,0,0,0,1.12-1.12"/><path d="M262.82,425.38l-3.36,3.06a.91.91,0,0,0,1.18,1.38l3.78-3.06a.91.91,0,0,0-.57-1.62h-.42a.92.92,0,0,0-.61.24m-2.64,6.05h-1.4a1.2,1.2,0,0,0-1.13.79l-8.13,22.43a1.2,1.2,0,0,0,2.26.82l2.65-7.28h10.22l2.72,7.29a1.19,1.19,0,0,0,1.12.78h.16a1.2,1.2,0,0,0,1.12-1.62l-8.47-22.43a1.2,1.2,0,0,0-1.12-.78m-5,14.52c2.09-6,3.62-10.29,4.23-12.27h0c.52,1.76,1.88,5.28,4.47,12.27Z"/><path d="M347.83,454.35c-6.08,0-8.44-5.4-8.44-10.51s2.44-10.54,8.29-10.54c3.79,0,5.74,1.75,6.83,4.34a1.2,1.2,0,0,0,1.12.73h.09a1.22,1.22,0,0,0,1.14-1.65c-1.23-3.3-4.25-5.64-9.05-5.64-7.38,0-11.1,6.1-11.1,12.83,0,7,3.76,12.65,11,12.65,4.62,0,7.49-2.21,8.95-5.37a1.24,1.24,0,0,0-1.11-1.75,1.22,1.22,0,0,0-1.1.69,6.7,6.7,0,0,1-6.63,4.22"/><path d="M426.45,432.7V455a1.27,1.27,0,1,0,2.54,0V432.7a1.27,1.27,0,1,0-2.54,0"/><path d="M502.59,454V432.55a1.12,1.12,0,0,0-1.12-1.12h-.3a1.12,1.12,0,0,0-1.12,1.12v21.52a2.19,2.19,0,0,0,2.19,2.19h12.18a1.12,1.12,0,0,0,0-2.24Z"/></svg>